# xmcd CD database file
#
# Track frame offsets:
#	182
#	10955
#	24730
#	35055
#	48367
#	58800
#	76112
#	89522
#	102657
#	114555
#	126777
#	139437
#	152290
#	166322
#	177600
#	187290
#	199022
#	210435
#	222332
#	234062
#	245050
#
# Disc length: 3434 seconds
#
# Revision: 0
# Processed by: cddbd v1.5.2PL0 Copyright (c) Steve Scherf et al.
# Submitted via: CDex 1.97
#
DISCID=300d6815
DTITLE=Sugar Pie De Santo - Use What You Got
DYEAR=1900
DGENRE=Blues
TTITLE0=In The Basement Pt. 1
TTITLE1=Iwant To Know
TTITLE2=Mama Didn't Raise No Fools
TTITLE3=There's Gonna Be Trouble
TTITLE4=I Don't Feel Sorry
TTITLE5=Maybe You'll Be There
TTITLE6=Do I Make Myself Clear
TTITLE7=Slip-in Mules
TTITLE8=Ask Me
TTITLE9=Use What You Got
TTITLE10=Can't Let You Go
TTITLE11=Soulful Dress
TTITLE12=I Don't Wanna Fuss
TTITLE13=Going Back To Where I Belong
TTITLE14=It Won't Be Long
TTITLE15=She's Got Everything
TTITLE16=Wish You Were Mine
TTITLE17=It's Done And Forgotten
TTITLE18=Tell Me What's The Matter
TTITLE19=I Still Care
TTITLE20=Slip-in Mules (alt)
EXTD=
EXTT0=
EXTT1=
EXTT2=
EXTT3=
EXTT4=
EXTT5=
EXTT6=
EXTT7=
EXTT8=
EXTT9=
EXTT10=
EXTT11=
EXTT12=
EXTT13=
EXTT14=
EXTT15=
EXTT16=
EXTT17=
EXTT18=
EXTT19=
EXTT20=
PLAYORDER=
